<?xml version="1.0" ?><!DOCTYPE svg  PUBLIC '-//W3C//DTD SVG 1.0//EN'  'http://www.w3.org/TR/2001/REC-SVG-20010904/DTD/svg10.dtd'><svg enable-background="new 0 0 32 32" height="32px" id="Layer_1" version="1.0" viewBox="0 0 32 32" width="32px" xml:space="preserve" xmlns="http://www.w3.org/2000/svg" xmlns:xlink="http://www.w3.org/1999/xlink"><path d="M31.652,22.174c-0.01,0.01-3.553,3.555-3.553,3.555c-0.461,0.457-1.218,0.457-1.679,0c-0.463-0.463-0.463-1.213,0-1.676  l1.533-1.533h-6.621c-1.713,0-3.72-1.074-4.671-2.5l-1.254-1.881l-1.256,1.881c-0.951,1.426-2.958,2.5-4.67,2.5H1.185  C0.53,22.52,0,21.99,0,21.335s0.53-1.187,1.185-1.187h8.297c0.908,0,2.195-0.688,2.699-1.443l1.803-2.704l-1.803-2.705  c-0.504-0.755-1.791-1.444-2.699-1.444H1.185C0.53,11.852,0,11.322,0,10.667c0-0.656,0.53-1.186,1.185-1.186h8.297  c1.712,0,3.72,1.075,4.67,2.5l1.256,1.882l1.254-1.882c0.951-1.425,2.958-2.5,4.671-2.5h6.621l-1.533-1.533  c-0.463-0.462-0.463-1.212,0-1.676c0.466-0.463,1.216-0.463,1.679,0l3.553,3.556c0.455,0.448,0.451,1.226,0,1.678  c-0.012,0.011-3.553,3.555-3.553,3.555c-0.457,0.454-1.223,0.457-1.679,0c-0.463-0.464-0.463-1.214,0-1.676l1.533-1.533h-6.621  c-0.908,0-2.192,0.689-2.699,1.444l-1.802,2.705l1.802,2.704c0.507,0.755,1.791,1.443,2.699,1.443h6.621l-1.533-1.532  c-0.463-0.462-0.463-1.214,0-1.677c0.466-0.462,1.216-0.462,1.679,0l3.553,3.556C31.938,21.064,32.218,21.607,31.652,22.174z"/></svg>